<?xml version="1.0" encoding="UTF-8"?>
<svg version="1.1" xmlns="http://www.w3.org/2000/svg" width="512" height="512">
<path d="M0 0 C1.22761765 -0.00445784 2.45523531 -0.00891569 3.72005349 -0.01350862 C5.07413504 -0.01341933 6.42821657 -0.01322951 7.78229809 -0.01294994 C9.22729137 -0.01625158 10.67228374 -0.01997778 12.11727494 -0.02409142 C16.0842538 -0.03408577 20.05121753 -0.03782409 24.01820719 -0.04048073 C28.29863698 -0.04439151 32.57905487 -0.05396942 36.85947704 -0.0626936 C47.19604213 -0.08243798 57.53260816 -0.09252244 67.86918738 -0.10142139 C72.74187886 -0.10580831 77.61456925 -0.11117414 82.48725986 -0.11641026 C98.69456062 -0.13342184 114.9018607 -0.14791416 131.10916901 -0.155159 C135.31321558 -0.15706877 139.51726215 -0.15898912 143.72130871 -0.16094494 C144.76615282 -0.16142868 145.81099693 -0.16191242 146.88750299 -0.16241082 C163.79857061 -0.17070421 180.70956733 -0.19602977 197.62060402 -0.22852562 C214.99933818 -0.26164669 232.37803638 -0.27961238 249.75680226 -0.28280324 C259.50754645 -0.28496385 269.25818731 -0.29364644 279.00890064 -0.31926441 C287.31637052 -0.34104061 295.62371197 -0.34898802 303.93120716 -0.33929763 C308.16423734 -0.33477266 312.39700292 -0.33653306 316.6299963 -0.35605907 C349.22596296 -0.49819777 349.22596296 -0.49819777 362.81188488 4.13422108 C364.07221271 4.54670109 364.07221271 4.54670109 365.35800171 4.96751404 C388.66144595 13.30978909 407.03870438 31.20062555 418.01891613 53.11078358 C422.81357043 63.35124948 425.92699179 75.01780689 425.94610596 86.3223362 C425.9505638 87.54995385 425.95502164 88.7775715 425.95961457 90.04238969 C425.95952529 91.39647123 425.95933547 92.75055277 425.9590559 94.10463428 C425.96235754 95.54962757 425.96608374 96.99461994 425.97019738 98.43961114 C425.98019173 102.40659 425.98393004 106.37355373 425.98658669 110.34054339 C425.99049747 114.62097318 426.00007538 118.90139107 426.00879955 123.18181324 C426.02854394 133.51837832 426.0386284 143.85494436 426.04752734 154.19152358 C426.05191427 159.06421505 426.0572801 163.93690544 426.06251621 168.80959606 C426.0795278 185.01689681 426.09402012 201.2241969 426.10126495 217.4315052 C426.10317472 221.63555178 426.10509507 225.83959835 426.1070509 230.04364491 C426.10753464 231.08848902 426.10801838 232.13333313 426.10851678 233.20983919 C426.11681017 250.1209068 426.14213573 267.03190353 426.17463157 283.94294021 C426.20775264 301.32167438 426.22571834 318.70037258 426.22890919 336.07913846 C426.23106981 345.82988265 426.23975239 355.5805235 426.26537037 365.33123684 C426.28714656 373.63870672 426.29509397 381.94604817 426.28540359 390.25354335 C426.28087862 394.48657354 426.28263902 398.71933912 426.30216503 402.9523325 C426.44430373 435.54829916 426.44430373 435.54829916 421.81188488 449.13422108 C421.39940486 450.39454891 421.39940486 450.39454891 420.97859192 451.68033791 C412.63631687 474.98378215 394.74548041 493.36104058 372.83532238 504.34125233 C362.59485648 509.13590663 350.92829907 512.24932799 339.62376976 512.26844215 C338.39615211 512.2729 337.16853445 512.27735784 335.90371627 512.28195077 C334.54963472 512.28186149 333.19555319 512.28167166 331.84147167 512.2813921 C330.39647839 512.28469374 328.95148602 512.28841994 327.50649482 512.29253358 C323.53951596 512.30252792 319.57255223 512.30626624 315.60556257 512.30892289 C311.32513278 512.31283367 307.04471489 512.32241158 302.76429272 512.33113575 C292.42772763 512.35088013 282.0911616 512.3609646 271.75458238 512.36986354 C266.8818909 512.37425047 262.00920051 512.37961629 257.1365099 512.38485241 C240.92920914 512.40186399 224.72190906 512.41635632 208.51460075 512.42360115 C204.31055418 512.42551092 200.10650761 512.42743127 195.90246105 512.42938709 C194.85761694 512.42987083 193.81277283 512.43035457 192.73626677 512.43085297 C175.82519915 512.43914637 158.91420243 512.46447193 142.00316574 512.49696777 C124.62443158 512.53008884 107.24573338 512.54805454 89.8669675 512.55124539 C80.11622331 512.553406 70.36558245 512.56208859 60.61486912 512.58770657 C52.30739924 512.60948276 44.00005779 512.61743017 35.6925626 512.60773978 C31.45953242 512.60321481 27.22676684 512.60497521 22.99377346 512.62450123 C-9.6021932 512.76663992 -9.6021932 512.76663992 -23.18811512 508.13422108 C-24.02833367 507.8592344 -24.86855223 507.58424772 -25.73423195 507.30092812 C-49.03767619 498.95865307 -67.41493462 481.06781661 -78.39514637 459.15765858 C-83.18980067 448.91719267 -86.30322203 437.25063527 -86.3223362 425.94610596 C-86.32679404 424.7184883 -86.33125188 423.49087065 -86.33584481 422.22605246 C-86.33575553 420.87197092 -86.33556571 419.51788938 -86.33528614 418.16380787 C-86.33858778 416.71881458 -86.34231398 415.27382222 -86.34642762 413.82883102 C-86.35642197 409.86185216 -86.36016028 405.89488843 -86.36281693 401.92789876 C-86.36672771 397.64746898 -86.37630562 393.36705109 -86.38502979 389.08662891 C-86.40477418 378.75006383 -86.41485864 368.4134978 -86.42375758 358.07691857 C-86.42814451 353.2042271 -86.43351034 348.33153671 -86.43874645 343.45884609 C-86.45575804 327.25154534 -86.47025036 311.04424526 -86.47749519 294.83693695 C-86.47940496 290.63289037 -86.48132531 286.4288438 -86.48328114 282.22479725 C-86.48376488 281.17995314 -86.48424862 280.13510902 -86.48474701 279.05860297 C-86.49304041 262.14753535 -86.51836597 245.23653863 -86.55086181 228.32550194 C-86.58398288 210.94676778 -86.60194858 193.56806958 -86.60513943 176.1893037 C-86.60730005 166.43855951 -86.61598263 156.68791865 -86.64160061 146.93720531 C-86.6633768 138.62973543 -86.67132421 130.32239399 -86.66163383 122.0148988 C-86.65710886 117.78186862 -86.65886926 113.54910303 -86.67839527 109.31610966 C-86.82053397 76.72014299 -86.82053397 76.72014299 -82.18811512 63.13422108 C-81.91312844 62.29400252 -81.63814177 61.45378397 -81.35482216 60.58810425 C-73.01254711 37.28466 -55.12171065 18.90740158 -33.21155262 7.92718983 C-22.97108672 3.13253552 -11.30452931 0.01911417 0 0 Z " fill="#EE3123" transform="translate(86.18811511993408,-0.13422107696533203)"/>
<path d="M0 0 C3.21299085 1.41627968 5.37087891 3.11817492 7.85058594 5.59179688 C8.59105164 6.32595825 9.33151733 7.06011963 10.09442139 7.81652832 C10.88310608 8.60926147 11.67179077 9.40199463 12.484375 10.21875 C13.29996887 11.03243042 14.11556274 11.84611084 14.95587158 12.68444824 C16.67632978 14.40354646 18.3942689 16.12516894 20.10986328 17.84912109 C22.74680932 20.49679634 25.3942738 23.13361531 28.04296875 25.76953125 C29.71157942 27.439463 31.37956986 29.11001478 33.046875 30.78125 C34.24204742 31.97034973 34.24204742 31.97034973 35.46136475 33.18347168 C36.55315033 34.28471375 36.55315033 34.28471375 37.66699219 35.40820312 C38.31222839 36.05503052 38.9574646 36.70185791 39.62225342 37.36828613 C41 39 41 39 41 41 C32.42 41 23.84 41 15 41 C15.04042802 57.80411753 15.09739793 74.60790999 15.18390274 91.41184235 C15.22355732 99.21580814 15.25601825 107.01967507 15.27099609 114.82373047 C15.28408361 121.63302331 15.3112268 128.4420974 15.35461307 135.25126696 C15.37707005 138.85012635 15.3929203 142.44871754 15.39188385 146.0476532 C15.08313943 176.18898103 15.08313943 176.18898103 29.375 201.875 C37.78802984 209.75063366 48.07523203 211.43371533 59.27734375 211.24609375 C70.41962833 210.5095104 78.75931595 205.72268346 86.3125 197.625 C93.84920408 188.67984625 96.39402103 179.18584625 96.3125 167.625 C96.30686035 166.78718994 96.3012207 165.94937988 96.29541016 165.08618164 C96.07625425 153.92333443 92.81863841 144.30051322 85.11328125 135.95703125 C78.67161725 130.02158839 72.38703453 127.39629558 64 125 C64 133.25 64 141.5 64 150 C56.125 143.25 56.125 143.25 53.08422852 140.19775391 C52.40405167 139.51750153 51.72387482 138.83724915 51.02308655 138.13638306 C49.9617173 137.06727188 49.9617173 137.06727188 48.87890625 135.9765625 C48.13414536 135.23038666 47.38938446 134.48421082 46.62205505 133.71542358 C44.26649173 131.35430611 41.91444784 128.98971838 39.5625 126.625 C37.95661237 125.01409144 36.35049484 123.40341204 34.74414062 121.79296875 C30.82676487 117.86462487 26.91226513 113.93343326 23 110 C24.43129628 106.73520247 26.18289987 104.56880858 28.69946289 102.05761719 C29.45687271 101.29713074 30.21428253 100.53664429 30.99464417 99.75311279 C32.22126015 98.53727509 32.22126015 98.53727509 33.47265625 97.296875 C34.31090439 96.45908508 35.14915253 95.62129517 36.01280212 94.75811768 C37.78326914 92.99066956 39.55616378 91.22565035 41.33129883 89.46289062 C44.06064573 86.75184184 46.78186432 84.0328345 49.50195312 81.3125 C51.22088202 79.5984847 52.94026735 77.884927 54.66015625 76.171875 C55.47992447 75.3532196 56.29969269 74.53456421 57.14430237 73.69110107 C57.89856003 72.94322327 58.65281769 72.19534546 59.42993164 71.42480469 C60.09674454 70.76180359 60.76355743 70.09880249 61.45057678 69.41571045 C63 68 63 68 64 68 C64 77.57 64 87.14 64 97 C69.94 97.99 69.94 97.99 76 99 C93.8491697 103.87864243 107.03865976 115.68124265 116.50390625 131.2890625 C118.7818125 135.41665241 120.55579568 139.51360603 122 144 C122.2990625 144.91652344 122.598125 145.83304688 122.90625 146.77734375 C128.20921338 165.85328148 125.57050249 186.48317685 116.75 204.0625 C106.57937424 221.42536871 91.17592223 231.8486044 72.17822266 237.54638672 C57.98682156 240.50173566 41.04889791 239.23428922 28 233 C27.03707031 232.5771875 26.07414062 232.154375 25.08203125 231.71875 C11.10150489 224.9355327 -1.36002156 211.49196253 -7 197 C-9.6894523 189.08587693 -12.12790377 181.56624859 -12.12025452 173.15971375 C-12.12162918 171.99168716 -12.12300385 170.82366058 -12.12442017 169.62023926 C-12.12082489 168.34781372 -12.11722961 167.07538818 -12.11352539 165.7644043 C-12.11324316 164.40407819 -12.11340195 163.04375192 -12.1139679 161.6834259 C-12.11425448 157.99787572 -12.10838016 154.31235817 -12.10139394 150.62681556 C-12.09513732 146.77243704 -12.09455477 142.91805774 -12.09336853 139.06367493 C-12.09026202 131.76814497 -12.0820578 124.47263003 -12.07201904 117.17710668 C-12.06083678 108.87001663 -12.05534213 100.56292587 -12.05032361 92.25583017 C-12.03987463 75.17054328 -12.02153759 58.08527706 -12 41 C-21.24 41 -30.48 41 -40 41 C-33.25 33.125 -33.25 33.125 -30.19775391 30.08422852 C-29.51750153 29.40405167 -28.83724915 28.72387482 -28.13638306 28.02308655 C-27.42364227 27.31550705 -26.71090149 26.60792755 -25.9765625 25.87890625 C-25.23038666 25.13414536 -24.48421082 24.38938446 -23.71542358 23.62205505 C-21.35430611 21.26649173 -18.98971838 18.91444784 -16.625 16.5625 C-15.01409144 14.95661237 -13.40341204 13.35049484 -11.79296875 11.74414062 C-7.86462487 7.82676487 -3.93343326 3.91226513 0 0 Z " fill="#FEFCFC" transform="translate(286,124)"/>
<path d="M0 0 C0.99261337 0.00222061 1.98522675 0.00444122 3.00791931 0.00672913 C4.12900589 0.00680466 5.25009247 0.00688019 6.40515137 0.00695801 C8.2348069 0.01469994 8.2348069 0.01469994 10.10142517 0.02259827 C11.96377052 0.02472069 11.96377052 0.02472069 13.86373901 0.02688599 C17.16982383 0.03154861 20.47584039 0.04053955 23.78190613 0.05158997 C27.15338042 0.06180625 30.52486175 0.06638407 33.89634705 0.07142639 C40.51550667 0.08248056 47.13463385 0.09923715 53.75376892 0.12025452 C52.82000147 1.39316995 51.88229568 2.66319686 50.94297791 3.93202209 C50.42122482 4.63958145 49.89947174 5.34714081 49.36190796 6.07614136 C46.684422 9.47950646 43.52738623 12.2971758 40.2830658 15.16127014 C38.64946489 16.63411761 38.64946489 16.63411761 36.75376892 19.12025452 C36.71393741 24.28241893 40.01441902 27.7423317 43.17564392 31.54603577 C52.0121683 40.36917147 61.49894189 44.08021918 73.62876892 44.43275452 C87.08912337 44.20290855 97.12261582 39.1420572 106.61314392 29.79212952 C109.46489071 26.23264994 111.53877102 22.10725074 113.75376892 18.12025452 C122.33376892 18.12025452 130.91376892 18.12025452 139.75376892 18.12025452 C138.62580343 26.01601296 138.62580343 26.01601296 137.22251892 28.91712952 C136.91153259 29.56029114 136.60054626 30.20345276 136.28013611 30.86610413 C135.94143494 31.52747375 135.60273376 32.18884338 135.25376892 32.87025452 C134.89702087 33.56836243 134.54027283 34.26647034 134.17271423 34.98573303 C125.88192159 50.67077264 113.23638029 60.79482432 96.75376892 67.12025452 C95.88107361 67.46056702 95.0083783 67.80087952 94.10923767 68.15150452 C79.00708282 72.92758863 59.96919528 72.01055529 45.75376892 65.12025452 C34.55731811 59.28083573 24.60352274 51.85153549 17.75376892 41.12025452 C14.60253656 42.51164013 12.51294858 44.13380391 10.11705017 46.59681702 C9.4576947 47.26712952 8.79833923 47.93744202 8.1190033 48.62806702 C7.44160095 49.32673889 6.76419861 50.02541077 6.06626892 50.74525452 C4.7103703 52.13539941 3.35241248 53.52353988 1.99205017 54.90931702 C1.394328 55.52500549 0.79660583 56.14069397 0.18077087 56.77503967 C-1.24623108 58.12025452 -1.24623108 58.12025452 -2.24623108 58.12025452 C-2.91293873 43.57680729 -3.35180951 29.05304347 -3.37123108 14.49525452 C-3.3757428 13.1796051 -3.38025452 11.86395569 -3.38490295 10.50843811 C-3.38296936 9.2949469 -3.38103577 8.08145569 -3.37904358 6.83119202 C-3.37791565 5.75144104 -3.37678772 4.67169006 -3.37562561 3.55921936 C-3.20780381 0.39593678 -3.15357081 0.16882997 0 0 Z " fill="#FEFBFB" transform="translate(104.24623107910156,285.87974548339844)"/>
<path d="M0 0 C1.14082031 0.81597656 1.14082031 0.81597656 2.3046875 1.6484375 C3.06523437 2.17179688 3.82578125 2.69515625 4.609375 3.234375 C5.16882813 3.70101562 5.72828125 4.16765625 6.3046875 4.6484375 C6.3046875 5.3084375 6.3046875 5.9684375 6.3046875 6.6484375 C17.1068738 -1.78813123 17.1068738 -1.78813123 25.3046875 -12.3515625 C25.9646875 -12.3515625 26.6246875 -12.3515625 27.3046875 -12.3515625 C27.47984643 -7.91435832 27.64299827 -3.47677626 27.8046875 0.9609375 C27.87623047 2.76788086 27.87623047 2.76788086 27.94921875 4.61132812 C28.42541446 17.97882189 28.3046875 31.23883341 28.3046875 44.6484375 C-0.4053125 45.1434375 -0.4053125 45.1434375 -29.6953125 45.6484375 C-22.9453125 37.7734375 -22.9453125 37.7734375 -20.484375 35.33984375 C-19.96230469 34.82099609 -19.44023437 34.30214844 -18.90234375 33.76757812 C-18.38027344 33.25388672 -17.85820312 32.74019531 -17.3203125 32.2109375 C-16.77503906 31.67017578 -16.22976562 31.12941406 -15.66796875 30.57226562 C-14.34607786 29.26197027 -13.02103632 27.95485466 -11.6953125 26.6484375 C-13.7910537 21.73752155 -17.01552307 19.94620645 -21.6953125 17.6484375 C-31.97802258 13.56773996 -43.82933834 12.90819211 -54.32421875 16.61328125 C-67.51258488 22.37096992 -73.95785753 30.65252439 -79.6953125 43.6484375 C-80.0253125 44.6384375 -80.3553125 45.6284375 -80.6953125 46.6484375 C-89.2753125 46.6484375 -97.8553125 46.6484375 -106.6953125 46.6484375 C-103.23479227 27.61557624 -95.3625426 12.44830084 -79.6953125 0.6484375 C-70.78947248 -5.34937313 -62.212388 -8.9741393 -51.6953125 -11.3515625 C-50.86386719 -11.54492188 -50.03242188 -11.73828125 -49.17578125 -11.9375 C-32.03767971 -14.79834845 -14.18579005 -9.52905654 0 0 Z " fill="#FEFCFC" transform="translate(217.6953125,231.3515625)"/>
</svg>
